<svg version="1.1" id="Layer_1" xmlns="http://www.w3.org/2000/svg" xmlns:xlink="http://www.w3.org/1999/xlink" x="0px" y="0px"
	 width="100%" viewBox="0 0 64 64" enable-background="new 0 0 64 64" xml:space="preserve">
<path fill="#FFFFFF" opacity="1.000000" stroke="none" 
	d="
M34.000000,65.000000 
	C22.687866,65.000000 11.875731,65.000000 1.031798,65.000000 
	C1.031798,43.729649 1.031798,22.459242 1.031798,1.094417 
	C22.228270,1.094417 43.457100,1.094417 64.842964,1.094417 
	C64.842964,22.332422 64.842964,43.666092 64.842964,65.000000 
	C54.793522,65.000000 44.646763,65.000000 34.000000,65.000000 
M46.936642,5.020370 
	C38.282940,5.013630 29.628450,4.931168 20.975748,5.020919 
	C11.870220,5.115367 5.161474,11.702097 5.026377,20.718863 
	C4.904227,28.871576 4.913801,37.028721 5.023472,45.181786 
	C5.144659,54.190948 11.847147,60.862373 20.876387,60.978317 
	C28.863192,61.080875 36.852894,61.058300 44.840336,60.984680 
	C54.196159,60.898441 60.874283,54.273621 60.983200,44.966064 
	C61.066925,37.811012 61.001244,30.654205 60.999874,23.498178 
	C60.997864,13.008838 57.697647,8.412048 46.936642,5.020370 
z"/>
<path fill="#F4F4F4" opacity="1.000000" stroke="none" 
	d="
M47.368019,5.063503 
	C57.697647,8.412048 60.997864,13.008838 60.999874,23.498178 
	C61.001244,30.654205 61.066925,37.811012 60.983200,44.966064 
	C60.874283,54.273621 54.196159,60.898441 44.840336,60.984680 
	C36.852894,61.058300 28.863192,61.080875 20.876387,60.978317 
	C11.847147,60.862373 5.144659,54.190948 5.023472,45.181786 
	C4.913801,37.028721 4.904227,28.871576 5.026377,20.718863 
	C5.161474,11.702097 11.870220,5.115367 20.975748,5.020919 
	C29.628450,4.931168 38.282940,5.013630 47.368019,5.063503 
M8.372923,16.241058 
	C7.915040,18.149040 7.102869,20.049496 7.062136,21.966341 
	C6.906526,29.289307 6.942064,36.618118 7.014766,43.943668 
	C7.092950,51.821526 14.154656,58.902714 22.020275,58.984482 
	C29.345755,59.060631 36.673302,59.061974 43.998745,58.984085 
	C51.849884,58.900612 58.909435,51.801041 58.985630,43.924637 
	C59.056492,36.599049 59.066006,29.271498 58.982941,21.946169 
	C58.894241,14.123768 51.755260,7.090349 43.869553,7.012320 
	C37.376446,6.948071 30.867155,7.276267 24.392481,6.924861 
	C17.209665,6.535021 12.360576,9.781671 8.372923,16.241058 
z"/>
<path fill="#FDFDFE" opacity="1.000000" stroke="none" 
	d="
M8.558039,15.898105 
	C12.360576,9.781671 17.209665,6.535021 24.392481,6.924861 
	C30.867155,7.276267 37.376446,6.948071 43.869553,7.012320 
	C51.755260,7.090349 58.894241,14.123768 58.982941,21.946169 
	C59.066006,29.271498 59.056492,36.599049 58.985630,43.924637 
	C58.909435,51.801041 51.849884,58.900612 43.998745,58.984085 
	C36.673302,59.061974 29.345755,59.060631 22.020275,58.984482 
	C14.154656,58.902714 7.092950,51.821526 7.014766,43.943668 
	C6.942064,36.618118 6.906526,29.289307 7.062136,21.966341 
	C7.102869,20.049496 7.915040,18.149040 8.558039,15.898105 
M27.835440,17.011723 
	C25.829641,19.028627 22.851662,20.702055 21.995573,23.125156 
	C19.127911,31.241879 23.264133,36.565109 31.986115,37.159958 
	C33.352039,37.253113 34.648987,38.357594 35.977829,38.994442 
	C34.657681,39.881695 33.414726,41.337524 32.000187,41.529579 
	C29.576050,41.858707 27.013676,41.116646 24.571165,41.385654 
	C23.329685,41.522388 21.210089,42.953751 21.261049,43.674454 
	C21.375544,45.293755 22.478411,48.112045 23.388132,48.196793 
	C28.622128,48.684391 33.989288,49.029114 39.153305,48.301277 
	C41.025105,48.037457 43.379757,44.907764 43.933678,42.690853 
	C46.153980,33.804688 42.696243,29.583748 33.607338,28.828568 
	C32.305325,28.720385 31.100670,27.440502 29.850958,26.702881 
	C31.201180,25.831591 32.474594,24.406322 33.917873,24.206211 
	C36.778831,23.809544 39.733536,24.089012 42.379093,24.089012 
	C44.070587,18.942455 42.488258,16.587029 37.507362,16.724453 
	C34.545403,16.806175 31.581270,16.809185 27.835440,17.011723 
z"/>
<path fill="#5361A9" opacity="1.000000" stroke="none" 
	d="
M28.226776,16.929653 
	C31.581270,16.809185 34.545403,16.806175 37.507362,16.724453 
	C42.488258,16.587029 44.070587,18.942455 42.379093,24.089012 
	C39.733536,24.089012 36.778831,23.809544 33.917873,24.206211 
	C32.474594,24.406322 31.201180,25.831591 29.850958,26.702881 
	C31.100670,27.440502 32.305325,28.720385 33.607338,28.828568 
	C42.696243,29.583748 46.153980,33.804688 43.933678,42.690853 
	C43.379757,44.907764 41.025105,48.037457 39.153305,48.301277 
	C33.989288,49.029114 28.622128,48.684391 23.388132,48.196793 
	C22.478411,48.112045 21.375544,45.293755 21.261049,43.674454 
	C21.210089,42.953751 23.329685,41.522388 24.571165,41.385654 
	C27.013676,41.116646 29.576050,41.858707 32.000187,41.529579 
	C33.414726,41.337524 34.657681,39.881695 35.977829,38.994442 
	C34.648987,38.357594 33.352039,37.253113 31.986115,37.159958 
	C23.264133,36.565109 19.127911,31.241879 21.995573,23.125156 
	C22.851662,20.702055 25.829641,19.028627 28.226776,16.929653 
z"/>
</svg>