<?xml version="1.0" encoding="UTF-8"?>
<!DOCTYPE svg PUBLIC "-//W3C//DTD SVG 1.1//EN" "http://www.w3.org/Graphics/SVG/1.1/DTD/svg11.dtd">
<svg xmlns="http://www.w3.org/2000/svg" version="1.1" width="344px" height="344px" style="shape-rendering:geometricPrecision; text-rendering:geometricPrecision; image-rendering:optimizeQuality; fill-rule:evenodd; clip-rule:evenodd" xmlns:xlink="http://www.w3.org/1999/xlink">
<g><path style="opacity:0.997" fill="#f3f3f3" d="M 87.5,5.5 C 146.528,5.02757 205.528,5.52757 264.5,7C 306.093,16.5936 330.593,42.427 338,84.5C 338.667,142.167 338.667,199.833 338,257.5C 332.533,292.265 313.699,316.765 281.5,331C 271.806,334.539 261.806,336.539 251.5,337C 199.167,337.667 146.833,337.667 94.5,337C 55.6802,334.158 28.5135,314.991 13,279.5C 10.7058,272.99 9.03916,266.323 8,259.5C 7.33333,200.5 7.33333,141.5 8,82.5C 17.3571,38.9741 43.8571,13.3074 87.5,5.5 Z"/></g>
<g><path style="opacity:1" fill="#4e5ca6" d="M 232.5,68.5 C 233.209,69.404 234.209,69.7373 235.5,69.5C 235.5,84.8333 235.5,100.167 235.5,115.5C 209.529,113.687 183.529,113.187 157.5,114C 146.152,117.856 141.985,125.69 145,137.5C 146.902,142.4 150.402,145.567 155.5,147C 167.5,147.333 179.5,147.667 191.5,148C 220.789,150.632 238.955,166.132 246,194.5C 246.667,207.167 246.667,219.833 246,232.5C 244.469,257.428 231.969,273.928 208.5,282C 170.305,289.583 132.305,288.583 94.5,279C 90.7559,273.769 88.5893,267.936 88,261.5C 86.064,251.23 87.8973,241.73 93.5,233C 120.797,234.339 148.13,234.672 175.5,234C 190.141,231.796 194.975,223.63 190,209.5C 188.062,206.894 185.562,205.061 182.5,204C 168.902,202.72 155.235,202.054 141.5,202C 124.491,200.083 110.657,192.583 100,179.5C 91.8941,163.885 88.3941,147.218 89.5,129.5C 88.7586,90.4032 107.759,67.9032 146.5,62C 162.167,61.3333 177.833,61.3333 193.5,62C 206.51,64.1684 219.51,66.3351 232.5,68.5 Z"/></g>
<g><path style="opacity:1" fill="#b1b6d5" d="M 232.5,68.5 C 233.833,68.5 235.167,68.5 236.5,68.5C 236.83,84.3422 236.496,100.009 235.5,115.5C 235.5,100.167 235.5,84.8333 235.5,69.5C 234.209,69.7373 233.209,69.404 232.5,68.5 Z"/></g>
</svg>
